/* XPM */
static char *_22_51f7075c9b9d8eac36d84573fea4ad9a49a21a918563fad9c056bb21d4d31897[] = {
/* columns rows colors chars-per-pixel */
"60 60 194 2 ",
"   c #061D1A",
".  c #091E1D",
"X  c #07221E",
"o  c #09231E",
"O  c #0F2B1F",
"+  c #142A1E",
"@  c #072520",
"#  c #092621",
"$  c #072D26",
"%  c #0A2D26",
"&  c #0A2F28",
"*  c #162E20",
"=  c #0C322A",
"-  c #083027",
";  c #12342C",
":  c #153B2D",
">  c #183929",
",  c #0E3C35",
"<  c #153731",
"1  c #133C34",
"2  c #1B3D37",
"3  c #243E31",
"4  c #1B422F",
"5  c #17402E",
"6  c #0E4037",
"7  c #0F473C",
"8  c #184536",
"9  c #28452B",
"0  c #304F2F",
"q  c #234B32",
"w  c #2B5435",
"e  c #365D35",
"r  c #315B39",
"t  c #33562E",
"y  c #3E6537",
"u  c #3B643B",
"i  c #39653B",
"p  c #41693B",
"a  c #4C733C",
"s  c #47723A",
"d  c #537B3F",
"f  c #114C40",
"g  c #115347",
"h  c #115749",
"j  c #135B4F",
"k  c #155F52",
"l  c #365D40",
"z  c #3F5C57",
"x  c #176A5C",
"c  c #186D5E",
"v  c #166557",
"b  c #376058",
"n  c #176D60",
"m  c #197262",
"M  c #1A7D6C",
"N  c #425C58",
"B  c #456941",
"V  c #4B7743",
"C  c #577E41",
"Z  c #45605B",
"A  c #5E7471",
"S  c #576D6A",
"D  c #667A78",
"F  c #5A8B3E",
"G  c #1B816F",
"H  c #1B8471",
"J  c #1E8D79",
"K  c #1E8A77",
"L  c #1F927D",
"P  c #248A75",
"I  c #2A8D7B",
"U  c #208774",
"Y  c #27917E",
"T  c #5A874A",
"R  c #5C8C4A",
"E  c #5A8644",
"W  c #5E934F",
"Q  c #608D47",
"!  c #699A51",
"~  c #6A9648",
"^  c #6FA64F",
"/  c #6AA345",
"(  c #73AE4B",
")  c #70A44F",
"_  c #75B04D",
"`  c #79B24E",
"'  c #7FB84F",
"]  c #72A552",
"[  c #76AD53",
"{  c #7AAE54",
"}  c #77A65A",
"|  c #77B251",
" . c #7CB354",
".. c #7EB952",
"X. c #7EB458",
"o. c #70837F",
"O. c #81B656",
"+. c #82BA54",
"@. c #81B759",
"#. c #83B95B",
"$. c #88BE5D",
"%. c #86BA61",
"&. c #8BBC62",
"*. c #8FBE6A",
"=. c #8AB667",
"-. c #91BF64",
";. c #91BE6B",
":. c #89C256",
">. c #8DC45C",
",. c #87C057",
"<. c #90C65D",
"1. c #92CA5C",
"2. c #8EC262",
"3. c #8FC466",
"4. c #91C463",
"5. c #94CC61",
"6. c #99CE65",
"7. c #93C36B",
"8. c #96C96B",
"9. c #9ACC6D",
"0. c #99C56E",
"q. c #9CD06C",
"w. c #97C772",
"e. c #99C671",
"r. c #9CCD71",
"t. c #9FD173",
"y. c #A0D36E",
"u. c #A0CE74",
"i. c #A3D476",
"p. c #A5D579",
"a. c #A8D67A",
"s. c #229B86",
"d. c #229D88",
"f. c #2B9886",
"g. c #359A88",
"h. c #23A48D",
"j. c #22A88F",
"k. c #2CA38F",
"l. c #25AE95",
"z. c #2FAB96",
"x. c #29A893",
"c. c #2CB49C",
"v. c #25B299",
"b. c #35B59E",
"n. c #28BAA1",
"m. c #27BAA0",
"M. c #3BBBA5",
"N. c #34B8A1",
"B. c #718482",
"V. c #629E94",
"C. c #51AE9C",
"Z. c #4EBEA8",
"A. c #5BB7A7",
"S. c #60BEAE",
"D. c #3BC1AA",
"F. c #37C5AC",
"G. c #3FCAB3",
"H. c #44CBB5",
"J. c #4ECCB7",
"K. c #5ECEBB",
"L. c #65CAB7",
"P. c #75CDBD",
"I. c #79D1C1",
"U. c #77D2C3",
"Y. c #899895",
"T. c #97A3A1",
"R. c #A5B0AB",
"E. c #AAB5B4",
"W. c #B7BDBD",
"Q. c #B5BBBB",
"!. c #81CFC2",
"~. c #8BD2C6",
"^. c #87D1C5",
"/. c #95D3C8",
"(. c #9DD4CA",
"). c #91D3C7",
"_. c #97CFC4",
"`. c #AFC1C1",
"'. c #BBC2C1",
"]. c #A4D4CC",
"[. c #ACD6CE",
"{. c #B1D6CF",
"}. c #B4D6D1",
"|. c #BBD7D2",
" X c #B0D8D0",
".X c #C2C6C5",
"XX c #C3D6D5",
"oX c #CDD7D6",
"OX c #CBD8D6",
"+X c #CFD9D8",
"@X c #D4D9D7",
"#X c #D4D9D8",
"$X c #D9D9D9",
"%X c #D2D2D2",
/* pixels */
"1.1.1.$.@.@.>.5.5.5.p.p.p.p.p.p.6.( ( ( p.p.p.0.7.;.&.#.#.#.<.5.5.+.( ( ' 1.5.5.#.@.@.#.#.#.$.1.1.1.@.#.#.#.#.#.,.1.1.1.",
"1.1.1.$.@.@.$.5.5.6.p.p.p.p.p.p.8._ ( ( p.p.i.0.-.;.*.#.#.$.1.5.5.+.( ( ..5.5.5.X.@.X.#.#.@.$.<.1.1.$.#.#.@.#.#.,.1.1.1.",
"1.1.1.$.#.@.,.5.5.5.i.p.p.p.p.p.8.( ( ( p.i.p.0.;.;.*.#.#.#.5.5.5...( ( ..5.5.5.@.@.@.#.@.$.$.1.1.<.$.@.@.@.#.#.:.1.1.1.",
"1.1.1.>.%.%.2.5.1.5.p.p.p.q.5.6.3.X.X.| q.q.q.9.u.u.7.#.X.$.5.5.1.:.:.:.1.1.1.1.#.#.@.#.@.@.2.i.q.q.$.#.#.>.>.>.:.1.1.1.",
"1.1.1.2.&.=.>.1.1.1.p.p.a.6.1.1.>...#.#.5.5.6.i.p.p.9.#.#.#.5.5.5.1.1.1.1.1.1.1.#.#.#.#.#.X.3.p.p.t.%.#.#.:.1.1.1.1.1.1.",
"1.1.1.2.&.&.$.1.1.1.p.p.p.6.1.1.>.#.#.#.5.5.1.t.p.p.r.X.#.$.5.5.5.<.1.1.1.1.1.1.#.#.#.#.#.#.3.p.p.t.2.X.@.1.1.1.1.1.1.1.",
"1.1.1.-.$.&.&.<.>.<.9.9.9.6.6.6.5.=.&.&.>.2.<.8.9.r.7.$.$.$.3.2.4.1.>.>.1.>.>.<.,.,.,.,.2.,.4.q.t.q.,.2.,.1.1.1.2.1.:.1.",
"1.1.1.&.&.&.&.#.@.#.#.#.#.e.p.p.r.7.*.;.#.#.#.#.#.@.$.&.=.&.&.&.&.$.+.#.O.O.#.#.<.1.5.5.5.5.5.1.1.1.1.<.1.1.1.<.>.#.#.@.",
"1.1.1.<.$.&.$.@.#.#.#.@.#.e.a.p.u.;.;.;.#.#.#.#.#.#.%.2.%.&.&.&.&.#.#.#.#.#.#.#.1.1.1.1.5.1.1.1.1.1.1.1.1.1.1.1.>.#.#.#.",
"1.:.:.-.-.=.%.#.#.#.$.&.$.r.p.p.u.*.;.7.#.#.#.#.#.#.X.2.&.&.&.&.&.%.#.#.@.@.+.+.1.<.1.<.5.5.5.1.5.1.1.6.1.1.1.1.>.#.#.#.",
"_ ( ` O.#.#.#.#.#.#.r.i.i.i.p.p.u.;.*.*.#.#.#.2.5.5.5.1.1.<.#.#.#.| ( (  .1.1.>.$.#.#.#.#.$.3.p.p.p.a.p.p.6.1.1.>.@.#.#.",
"( ( ( O.#.#.#.#.#.&.i.p.p.p.p.p.r.;.7.7.#.#.@.<.5.5.5.1.1.1.%.#.#.| ( ( O.1.1.1.#.@.#.#.#.#.3.p.p.p.p.p.a.1.1.1.<.@.#.#.",
"( ( ( O.@.@.@.#.#.&.p.p.p.p.p.p.u.;.;.*.#.#.#.2.5.<.X.$.1.>.#.#.#.| ( _ ..1.1.1.#.@.$.@.@.#.3.p.p.i.p.p.p.6.1.1.>.#.#.#.",
":.:.$.$.=.-.#.| |  .-.0.7.8.6.6.5.&.#.%.>.>.>.5.] q = 4 w s T ] =.#.X.X.+.1.1.5.#.#.@.8.9.t.0.3.-.4.w.e.e.4.4.&.>.>.>.>.",
"1.1.1.4.;.7.#.( ( | &.&.$.<.1.1.>.@.@.@.1.1.1.$.V - & & & & - - = q p X.:.<.1.1.#.#.@.r.p.p.r.@.@.#.;.;.;.*.$.&.>.<.1.1.",
"1.1.1.<.;.;.&.( ( ( %.#.&.<.1.1.>.O.@.@.1.1. .w < 1 - & & & & = & % * ! >.1.1.1.@.#.#.9.p.p.8.@.@.@.*.;.;.=.&.&.>.1.1.1.",
"1.<.1.1.4.4.>.+.' +.$.>.&.2.>.>.:.X.X.O.>.>.R & S .XT.o.N < & & % # * ] >.:.$.$.+.#.@.7.9.e.4.@.X.#.&.3.%.3.2.2.>.<.>.>.",
"1.1.1.1.1.1.<.1.1.1.1.1.1.>.#.#.O. .|  .! 4 ; 8 D $X$X$X$X$XW.Y.D 2 # w s / ( _ O.O.@.O.#.#.$.@.#.X.%.#.#.<.5.5.2.#.#.#.",
"<.1.1.1.<.1.1.1.1.1.1.1.1.$.#.#.O. .| [ V - z .XQ.|.oX$X$X$X$X$X$XB.& $   F ( _ @.@.@.$.#.#.@.#.#.#.X.#.#.2.5.5.>.#.#.#.",
"1.1.1.1.1.1.1.1.<.<.1.1.1.$.@.#.O. .) q ; = N $X|.~.~./.].}.OX$X$XB.& %   F ( ( @.@.@.@.#.#.#.#.#.#.%.,...<.5.5.1.#.@.#.",
"p.p.p.6.1.1.6.a.a.i.2.&.&.#.@.#.@.@.] ; Z %X'.XX|.~.~.~.~.~.~.}.|.V.g , . e Q O.&.&.&.r.p.p.q.6.5.5.5.1.1.5.5.5.4.5.5.5.",
"p.p.p.6.1.1.6.a.p.i.&.&.3.#.#.#.#.#.[ : N $X@X{.[.~.~.~.~.~.~.[.{.L.m.s.& % . y &.&.&.r.p.p.i.5.5.5.1.1.1.5.5.5.1.5.5.5.",
"p.p.p.6.1.1.6.p.p.u.*.$.%.#.#.#.#.#.! ; N $XoX{.].~.^.^.^.oX|.^.].L.n.d.& & . a &.&.&.9.p.p.i.5.5.5.1.1.1.1.5.4.5.5.5.5.",
"6.6.6.:.O.O.:.6.6.6.1.<.1.>.>.>.>.w % 1 N $XOX^.(.}.].).~.$X$XH.G.G.D.d.& & . a @.#.#.*.7.7.4.1.1.1.5.5.5.2.,.>.%.>.,.>.",
"1.1.5... . ...1.1.1.1.1.1.1.1.1.1.1 2 R.E.|.|.~.].#X@X X[.XX+XH.G.G.G.k.& &   d @.@.@.$.&.&.2.1.1.5.5.5.5.,.%.X.#.#.#.#.",
"1.<.1...| | ,.1.1.1.1.1.1.1.1.1.>.4 2 .XOX~.].|. X+X@X}. X X}.].^.J.G.f.& %   E @.@.@.#.&.$.2.<.1.1.5.5.5.:.%.,.#.#.#.#.",
"1.1.1.,.+.+.,.1.1.1.<.>.:.1.1.1.2.4 2 '.OX^.(.#X|.!.^./.].[. X}.}.K.G.N.M f # > e T #.=.&.&.2.>.>.>.>.>.2.3.3.3.&.#.#.#.",
"1.1.1.1.5.5.1.1.1.1.#.#.#.>.5.5.2.q < W.OX^.).OX}.I.U.U.I.I.^./.].K.G.D.n.s.& & X 9 @.-.;.;.7.@.#.#.#.#.#.9.p.p.r.@.#.#.",
"1.1.1.5.5.5.5.1.1.1.@.#.$.2.5.5.1.q : W.OX^.).}.].!.P.U.I.I.I.I.I.g.k.N.n.d.& & . e O.=.*.*.*.@.#.#.#.#.#.9.a.p.9.#.#.#.",
"1.1.1.1.5.5.1.5.5.5.#.#.@.>.5.5.2.r = W.$X[.]._.(.I.I.U.I.I.I.I.P.I M k.H.f.& % . u #.=.*.*.&.O.#.#.#.#.#.8.t.t.9.#.#.$.",
"#.#.#.<.1.1.6.p.p.t.,.#.#.2.5.5.5.r = E.$X}.].l.J.P.U.I.I.I.P.U.I.f.M k.G.g.& & . V ;.X.( _  .#.#.@.#.@.#.%.7.*.-.<.<.1.",
"#.#.@.1.1.1.6.p.p.t.%.#.#.<.5.1.5.i & Q.XXL.!.j.Z.P.I.I.I.I.I.I.I.I M x.G.f.& &   B =. .( ( ` #.#.#.#.#.#.%.&.&.$.1.1.1.",
"#.X.#.<.1.1.6.p.p.i.#.#.#.2.5.5.5.{ V R.|.H.H.F.M.A.P.U.P.P.U.I.P.I M z.G.F.j.H $ $ ; y ( ( | @.#.#.@.@.#.$.&.&.$.1.1.1.",
"2.&.&.2.$.#.7.a.p.i.<.>.<.,.2.,.2.,.2.l z D.G.G.b.G I g.A.P.I.U.P.I G f.N.F.m.v.& & @ t :.:.$.#.#.#.&.%.&.>.2.1.4.&.4.$.",
";.;.*.%.#.#.3.p.p.i.1.1.1.2.X.#.#.#...w 6 M.D.M Y J G G G G g.C.L.U M m v M J s.& & X p 5.5.>.#.#.$.&.&.&.1.<.1.-.&.&.&.",
";.*.7.%.#.#.4.p.p.p.5.1.1.,.#.#.@.#.%.r 6 c.D.x G j.d.Y G M M M H s.J m x x x v & & X s 5.5.4.@.@.@.&.=.&.>.1.1.<.&.$.&.",
"w.w.w.3.,.2.3.q.r.q.2.>.:.2.X.X.#.,.,.i , l.n.x G l.l.l.l.h.s.H G l.l.l.s.m c j & & . d 5.1.1.>.$.>.7.4.8.<.1.1.<.#.$.%.",
"p.p.p.q.5.2.2.#.X.X.,.X...%.2.X.$.1.<.1.W U x.x m l.l.l.l.l.l.l.d.Y h.l.l.L M x & - . Q 1.1.1.5.5.6.p.p.p.6.1.1.>.@.@.$.",
"p.p.p.q.5.5.2.#.#.%.X.,.X.2.X.X.2.<.1.<.{ 4 , m M j.l.l.l.l.v.l.h.c m h.l.K M v & & X ~ 1.1.1.5.1.6.i.p.p.6.1.1.>.@.#.@.",
"p.p.p.8.5.1.1.#.#.#.X.X.X.X.X.2.,.1.1.>. .i , M J l.l.l.v.l.l.l.h.m m h.v.j f f - % O | 1.1.4.6.5.5.p.p.i.6.1.1.>.@.$.@.",
"#.#.$.<.5.5.5.;.7.3.$.@.@.>.1.1.>.O.@.@. .| ^ h M j.l.l.v.l.l.l.h.c c L l.7 - # 3 ~ ] 9.p.p.y.&.&.&.5.5.5.1.1.1.1.=.&.&.",
"#.@.@.2.5.1.8.;.*.*.@.$.#.<.1.1.>.@.@.@.|  .[ & = f U j.v.l.v.l.h.c n M G 6 - o 9 #.#.9.p.p.r.&.%.2.<.5.5.1.1.1.1.&.&.&.",
"#.#.@.<.5.5.4.;.*.;.%.@.#.>.1.1.>.@.@.@. .| { s 1 % = 7 x L l.l.j.M m m M , * # 0 #.#.9.p.p.r.&.2.&.5.5.5.1.1.1.>.&.$.&.",
"#.#.$.O.+. .>.t.r.r.2.>.>.>.,.,.2.9.r.8.| | ( +.>.) i : & - 7 m Y M n & 6 # > > } e.0.8.;.4.4.1.4.<.5.5.5.4.2.>.$. . . .",
"#.#.#. .( ( #.p.p.i.1.1.<.,.#.#.3.p.i.p.( ( ( :.1.1.>.[ T w = % = 7 g $ & + ] +.p.p.p.3.@.#.$.1.1.1.5.5.1.*.&.&.#.( ( ( ",
"@.#.#.` _ ( #.p.p.p.1.1.1.,.#.#.3.p.p.p.( ( ( :.1.1.>.@.#.{ R r = - % o p ~ 1.1.p.p.a.4.#.#.$.1.<.1.5.5.1.4.&.=.@.( ( ( ",
"@.#.@... .` #.r.8.t.4.4.4.2.$.,.8.p.p.p.` ` ` 4.6.q.1.$.$.$.3.4.%.R t C <.1.1.1.p.p.p.2.#.#.$.1.1.5.6.6.q.4.#.#.X.` ( | ",
"#.#.#.#.@.#.@.#.#.#.*.*.7.5.1.<.6.p.p.p.#.@.#.9.a.a.y.1.1.1.i.p.p.6.1.1.1.1.1.1.p.p.p.*.@.#.:.1.5.6.p.p.p.$. .| X.@.@.@.",
"#.#.#.#.#.#.#.#.@.%.*.*.;.4.1.1.6.p.a.p.@.#.#.r.p.p.q.1.1.1.i.a.p.6.1.1.<.1.1.1.p.p.a.2.@.X.$.5.1.6.p.p.p.>.|  .X.O.@.@.",
"#.$.#.#.#.@.#.#.#.%.*.*.;.4.5.1.6.p.u.p.$.@.#.0.i.p.q.1.>.1.u.i.i.8.1.1.1.1.1.1.i.i.i.&.@.@.$.5.5.5.i.p.p.$. . .X.X.@.@.",
"<.1.1.>.&.%.%.#.@.#.%.#.$.9.p.i.u.;.;.7.#.#.#.$.,.%.O._ ` ` &.-.&.#.#.#.2.p.p.p.%.#.$. .| ( X.7.7.7.5.1.1.$.#.#. .[ _ _ ",
"1.1.1.2.&.&.%.#.#.#.#.#.@.r.a.p.u.;.;.;.#.#.#.@.@.@.X._ ( ( $.&.&.#.@.#.3.p.p.p.#.#.#.` ( ( X.;.*.*.4.1.1.#.#.#.X.( ( ( ",
"1.1.1.2.*.&.#.#.#.#.#.#.@.r.p.p.i.;.;.;.#.#.#.#.#.#.X._ ( _ &.&.3.#...X.2.p.p.a.#.#.#.` ( ( X.;.;.7.1.1.1.>.#.#.X._ _ _ ",
"1.1.1.6.9.r.8.&.&.&.#.#.#.2.7.4.&.%.&.%.{  .{ X.#.@.#.%.#.$.4.2.4.4.2.3.>.#.%.%. . .X.[ ( ( | &.%.$.1.1.<.:.#.#.@.X. ...",
"1.1.1.i.p.p.r.;.*.*.#.#.@.@.#.#.@.#.@.$.( ( ( X.#.$.&.*.;.7.5.5.1.5.5.5.,.( _ ( |  . .( ( ( | #.@.#.>.1.1.$.#.#.#.#.#.#.",
"1.1.1.i.p.a.u.;.7.;.#.#.#.#.#.#.@.#.#.O.( ( (  .@.@.&.;.;.7.5.4.5.5.5.5.,.( ( |  . . .( ( ( | @.#.#.>.1.1.$.#.#.#.@.#.@.",
"1.1.1.4.5.7.8.4.4.2.@.@.@.$.@.#.$.,.$.$.( ( ( +.,.,.3.7.7.7.2.5.<.<.5.5.1.+.,.X.X.X.X...' ' +.$.&.=.6.6.6.>.#.#.#.=.$.%.",
"1.1.<.' ( ( ' 1.<.1.$.#.@.#.#.@.$.1.1.<.( ( ( :.6.5.5.5.5.5.2.&.3.>.1.1.6.a.p.p.#.#.#.>.1.1.4.7.7.7.p.a.p.7.#.#.%.;.;.;.",
"1.1.1.' ( ( ' 1.1.1.#.#.#.#.#.#.$.1.1.1.( ( _ >.5.5.4.5.5.5.2.&.&.4.1.1.6.a.p.p.#.#.#.>.1.1.2.*.;.;.i.p.a.-.#.#.%.;.7.;.",
"1.1.1.' ( _ ' 1.1.1.#.#.#.#.@.@.,.1.1.1.( ( ( :.5.5.5.5.1.5.&.&.&.>.1.1.6.p.p.p.#.#.X.1.1.1.4.7.;.7.i.p.p.4.#.#.=.;.;.;."
};
