/* XPM */
static char *ada70762221840ffd9a4aab854c7dd283eLMDRWL1w19c2e4[] = {
/* columns rows colors chars-per-pixel */
"32 32 146 2 ",
"   c #4E6C8A",
".  c #506E8C",
"X  c #54718E",
"o  c #567390",
"O  c #5A7693",
"+  c #5E7A96",
"@  c #5E7C98",
"#  c #607B97",
"$  c #627D99",
"%  c #66819C",
"&  c #69839E",
"*  c #6D86A1",
"=  c #6F88A3",
"-  c #7087A3",
";  c #738AA5",
":  c #778DA9",
">  c #788FA9",
",  c #7C92AC",
"<  c #8096AF",
"1  c #8398AF",
"2  c #8196B0",
"3  c #869BB4",
"4  c #879CB4",
"5  c #879DB4",
"6  c #879CB5",
"7  c #879DB5",
"8  c #859AB2",
"9  c #889DB4",
"0  c #899DB4",
"q  c #889CB5",
"w  c #889DB5",
"e  c #899DB5",
"r  c #899EB4",
"t  c #899EB5",
"y  c #889DB6",
"u  c #899EB6",
"i  c #8A9FB6",
"p  c #8B9FB6",
"a  c #8A9FB7",
"s  c #899EB5",
"d  c #8BA0B6",
"f  c #8BA0B7",
"g  c #8CA0B7",
"h  c #8CA1B7",
"j  c #8DA1B7",
"k  c #8BA0B7",
"l  c #8DA1B8",
"z  c #8DA1B9",
"x  c #8DA2B8",
"c  c #8DA2B9",
"v  c #8EA3B9",
"b  c #8EA3BA",
"n  c #8FA3BA",
"m  c #8FA4BA",
"M  c #8FA5BA",
"N  c #8FA5BB",
"B  c #8DA2B9",
"V  c #90A5BA",
"C  c #91A5BA",
"Z  c #90A4BB",
"A  c #90A5BB",
"S  c #91A5BB",
"D  c #90A5BC",
"F  c #91A6BC",
"G  c #92A6BC",
"H  c #93A6BC",
"J  c #92A7BC",
"K  c #93A7BC",
"L  c #93A7BD",
"P  c #91A5BB",
"I  c #93A8BD",
"U  c #94A8BC",
"Y  c #94A8BD",
"T  c #94A8BE",
"R  c #95A9BE",
"E  c #95A9BF",
"W  c #96A9BE",
"Q  c #96A9BF",
"!  c #96AABF",
"~  c #97AABF",
"^  c #95A9BE",
"/  c #99ABBF",
"(  c #98ABBF",
")  c #97ABC0",
"_  c #97ACC0",
"`  c #98ABC0",
"'  c #98ACC0",
"]  c #99ACC0",
"[  c #99ACC1",
"{  c #9AADC1",
"}  c #9BADC1",
"|  c #9AADC2",
" . c #9BAFC2",
".. c #9CAEC2",
"X. c #9CAFC3",
"o. c #9DAFC3",
"O. c #9AADC1",
"+. c #9DB0C3",
"@. c #9FB1C5",
"#. c #9EB1C4",
"$. c #A0B2C5",
"%. c #A0B3C5",
"&. c #A1B3C5",
"*. c #A0B3C6",
"=. c #A1B4C7",
"-. c #A2B4C6",
";. c #A3B4C7",
":. c #A2B4C6",
">. c #A4B5C8",
",. c #A6B7CA",
"<. c #A5B6C9",
"1. c #A6B8C9",
"2. c #A7B9CB",
"3. c #A7B8CA",
"4. c #A8B9CB",
"5. c #A9B9CB",
"6. c #A8BACB",
"7. c #A9BACC",
"8. c #ABBBCD",
"9. c #AABCCD",
"0. c #ACBCCD",
"q. c #AEBECF",
"w. c #AFBFCF",
"e. c #ABBBCD",
"r. c #B0BFCF",
"t. c #AFBFD0",
"y. c #AFBFD0",
"u. c #B1C0D1",
"i. c #B5C5D5",
"p. c #B7C5D5",
"a. c #B7C7D6",
"s. c #B4C3D3",
"d. c #B8C7D7",
"f. c #B8C8D7",
"g. c #B9C8D7",
"h. c #B8C8D8",
"j. c #BAC8D8",
"k. c #BCCBDA",
"l. c #BCCBDB",
"z. c #BBCAD9",
"x. c #C1CEDD",
"c. c #C2D0DF",
"v. c #C6D5E3",
"b. c #C8D7E4",
"n. c #CDDDE9",
"m. c #D0DFEB",
/* pixels */
"E M M  .+.8 : , : # % - , 2 4 c K i - O X O ; E @. .%...=.2.4.%.",
"< 2 K 7.>.i : , : $ % & ; - , 2 , , % o X o # , 2 f i 2 c ..7.E ",
", 4 =.j.f.g ; ; ; ; > : > , : * ; , % o   O # * ; < ; * : i i 2 ",
"2 E p.k.p.E , * ; i E < , 8 8 * & , % X   O % * * = % * ; * * , ",
"3 ` w.t.>.K , > 8 / E 8 2 , : , - : * O O % , , - $ % ; ; * * 8 ",
"K i 2 4 < , > K E i , ; ; ; * ; , , > * % : i c 2 * % ; , 2 4  .",
" ., % % ; , i =.%.8 : # @ $ - ,  .%.c , : 3 K K K i , 2 f c K %.",
"8 ; % # % <  .4.4.` , @ @ # * 2 4.k.k.7.K K S i S c 2 i K S 8 4 ",
"* # O O # , E 2.2.S ; # $ % * 8 %.p.j.9.) i 8 < c K 8 2 2 i , : ",
"& # X   o : i %. .> & % - ; : 2 f K c 2 2 , : , g  .I i 3 S c > ",
"$ O X o % $ : g i : & * : > : , 8 , * $ * > : , E 2.7...M  .c * ",
"# @ # - % @ @ % - , > ; > , , , 8 < , ; * ; , i w.u.w.=.E i , % ",
"= % - , ; % # @ # - i 2 , 1 8 i f f 4 < ; ; ,  .p.p.f.t.@.< : ; ",
"i : 8 c E , & % % , 4 S c f f i < i f , , 2 8 E p.x.v.l.>., > f ",
"E K  ... .E i 8 i c M @. .f 2 4 4 4 i c c c K  .u.b.b.l.@., > M ",
">.w.>.%. ...>.=.%.` =.s.w. .S c 8 4 c ..>.>.@.2.7.d.d.7.E , 8 _ ",
"4.t.w.7.2.7.s.j.w.2.l.v.l.4./ i 2 S +.4.w.2.w.s.=./  .c E ` E @.",
"I @.2.u.p.u.w.7.7.j.c.p.t.=.E 4 : > Z 4.2...@.4.K < i ; , K =.E ",
" .=.>.w.u.u.4. .7.v.v.7.E c , * % * , E .. .g 8 , ; , # @ 4 >.@.",
"7.u.7.>.%.@.w.w.d.b.j.@., * # @ # * , , 4 c < * # % > @ X % S +.",
"E  .%.E S  .7.u.x.l.9.i = $ @ @ # ; ; * > 2 , * # % > % o X & i ",
"* ; , i 8 E %.>.s.p.>.K 8 : % - < < : > , > : , : % > : @ o O # ",
"@ # @ % < 4 K +.+.%.>.>.%.` S / ..c 2 > > : : 8 3 * - , % @ O + ",
"O O O O - 8 c f 8 8 i  .w.j.j.>.I S c , - ; , E ` < < i : & # @ ",
"@ O o o @ : , , , , , 4 %.r.f.4.K i < , 2 i c %.2.K c M , ; % $ ",
"% O . X @ ; , f i ; ; > < E  .E f f 2 : 8 / >.w.w. .E g 2 , : * ",
"% @ O # ; 2 h E i * % % * 2 < , 4 3 4 3 f K @.w.u.w.>.g 3 8 , * ",
"* % $ * , S  .) , % @ # % - 1 2 i , , 8 E >. .S >.k.u. .c c , ; ",
"< , ; , 4 8 i f , # @ @ @ * < 3 f i c c  .%...K @.j.v.p... .c < ",
"i f g g i , ; , , - # O X % > g  .2.7. .S S S =.s.b.m.n.j.%.S 8 ",
"c 2 i S i : * - - * ; & & : 8 K 4.7...c : : f w.b.n.m.n.j. .8 c ",
"+.h i K S , > , ; $ % ; , 4 M I =...2 * @ # , >.c.j.f.j.t.@.@.@."
};
