/* XPM */
static char *_5cfd09a79f8402c9382e9f228822300rkVDG2hQkn1vAsQk[] = {
/* columns rows colors chars-per-pixel */
"32 32 95 2 ",
"   c black",
".  c #211F30",
"X  c #020228",
"o  c #333142",
"O  c #565562",
"+  c #454353",
"@  c #727076",
"#  c #625E53",
"$  c #2B282F",
"%  c #9E8743",
"&  c #00000F",
"*  c #201E30",
"=  c #64522C",
"-  c #6A5E30",
";  c #6B6131",
":  c #6F6842",
">  c #746E53",
",  c #716946",
"<  c #6E663E",
"1  c #68582D",
"2  c #66512A",
"3  c #64502A",
"4  c #1D1D31",
"5  c #8E6D25",
"6  c #040630",
"7  c #1D1E31",
"8  c #454031",
"9  c #482D27",
"0  c #000019",
"q  c #000002",
"w  c #5C563C",
"e  c #96917A",
"r  c #848285",
"t  c #2C2B3E",
"y  c #000029",
"u  c #8B803D",
"i  c #4F4D5B",
"p  c #000028",
"a  c #796F39",
"s  c #B4A963",
"d  c #454247",
"f  c #1F1F30",
"g  c #5A4A2B",
"h  c #463B2B",
"j  c #0B0E31",
"k  c #6F5B2B",
"l  c #4F422D",
"z  c #0D0D30",
"x  c #736530",
"c  c #514830",
"v  c #0C0D30",
"b  c #736831",
"n  c #514A30",
"m  c #0B0B2B",
"M  c #787044",
"N  c #544E3C",
"B  c #0A0926",
"V  c #7D7757",
"C  c #575347",
"Z  c #0B0A2A",
"A  c #797249",
"S  c #55503F",
"D  c #0B0B2C",
"F  c #776E3F",
"G  c #544D39",
"H  c #514A31",
"J  c #746931",
"K  c #524A31",
"L  c #0D0F31",
"P  c #705E2D",
"I  c #50442E",
"U  c #0E1132",
"Y  c #6E5729",
"T  c #4E402C",
"R  c #0D1032",
"E  c #6F5829",
"W  c #4F412C",
"Q  c #0D1433",
"!  c #604928",
"~  c #41342C",
"^  c #000F38",
"/  c #503325",
"(  c #75652E",
")  c #383431",
"_  c #37262A",
"`  c None",
"'  c #60542F",
"]  c #000032",
"[  c #FAEE89",
"{  c #DAD5A8",
"}  c #D0C159",
"|  c #7E5722",
" . c #C67D14",
".. c #AC7E21",
"X. c white",
/* pixels */
"                                                                ",
"                                                                ",
"                                                                ",
"                                                                ",
"                                                                ",
"                                                                ",
"                                                                ",
"                  . . . . .                                     ",
"                . X   0 q o O                                   ",
"                .   w e r t +                                   ",
"                . y u [ { i @                                   ",
"                . p a } s d #                                   ",
"                . $ f g h % &                                   ",
"                  * j k l = .                                   ",
"                  . z x c -                                     ",
"                  . v b n ;                                     ",
"                  . m M N :                                     ",
"                  . B V C >                                     ",
"                  . B V C >                                     ",
"                  . Z A S ,                                     ",
"                  . D F G <                                     ",
"                  . v b n ;                                     ",
"                  . v b H ;                                     ",
"                  . v b H ;                                     ",
"                  . v b H ;                                     ",
"                  . v J K ;                                     ",
"                  . L P I 1                                     ",
"                  . U Y T 2                                     ",
"                  . R E W 3 .                                   ",
"                . 4 Q ! ~ 5 6                                   ",
"                7 ^ / | ( ) 8 .                                 ",
"                9 _ `  ...' ] .                                 "
};