/* XPM */
static char *exit_opened_601702918184[] = {
/* columns rows colors chars-per-pixel */
"60 60 124 2 ",
"   c #000000",
".  c #06030B",
"X  c #08050E",
"o  c #0B1106",
"O  c #0D130A",
"+  c #10160B",
"@  c #0B0613",
"#  c #0B0815",
"$  c #0F071C",
"%  c #0F0819",
"&  c #110513",
"*  c #100718",
"=  c #11091D",
"-  c #141710",
";  c #140C24",
":  c #170D28",
">  c #190E2C",
",  c #1C0F31",
"<  c #1C1033",
"1  c #1F1339",
"2  c #211337",
"3  c #22133B",
"4  c #261643",
"5  c #281646",
"6  c #271843",
"7  c #291749",
"8  c #2B194B",
"9  c #311C57",
"0  c #341D5E",
"q  c #371E60",
"w  c #381F63",
"e  c #3A2065",
"r  c #3D236C",
"t  c #40246F",
"y  c #422573",
"u  c #44267A",
"i  c #48277D",
"p  c #45287C",
"a  c #48287D",
"s  c #62943F",
"d  c #659543",
"f  c #699947",
"g  c #6C9D4A",
"h  c #709E4E",
"j  c #759E53",
"k  c #72A24C",
"l  c #79A74F",
"z  c #73AE4B",
"x  c #7DAD4E",
"c  c #72B04B",
"v  c #79B34F",
"b  c #76A053",
"n  c #7AA554",
"m  c #7EAD52",
"M  c #79A15B",
"N  c #7EA95A",
"B  c #7CB454",
"V  c #7FB658",
"C  c #82AB5C",
"Z  c #83BC55",
"A  c #82B75A",
"S  c #83B95B",
"D  c #89BC5F",
"F  c #8CB466",
"G  c #87B960",
"H  c #8BBB63",
"J  c #8EB768",
"K  c #8EBE6B",
"L  c #92BE6C",
"P  c #87C055",
"I  c #8CC35D",
"U  c #90C45F",
"Y  c #92CA5B",
"T  c #8EC261",
"R  c #92C563",
"E  c #94CC62",
"W  c #9ACF67",
"Q  c #92C36B",
"!  c #97CA6D",
"~  c #9ACD6C",
"^  c #9CD16C",
"/  c #9AC772",
"(  c #98C872",
")  c #A6D577",
"_  c #A6D57A",
"`  c #482780",
"'  c #4C2A85",
"]  c #4E2C8B",
"[  c #502C8D",
"{  c #522E91",
"}  c #57309A",
"|  c #58339E",
" . c #5C34A3",
".. c #5E36A8",
"X. c #702FA5",
"o. c #7A2AA2",
"O. c #6533A6",
"+. c #6A31A7",
"@. c #6035A8",
"#. c #6D37B6",
"$. c #673BB7",
"%. c #6B39B7",
"&. c #6C37B9",
"*. c #673AB9",
"=. c #693BB9",
"-. c #7435B6",
";. c #7C33B5",
":. c #7038B7",
">. c #7336B8",
",. c #7B34B8",
"<. c #7139B8",
"1. c #8727A4",
"2. c #8C25A2",
"3. c #8129A1",
"4. c #9124A3",
"5. c #952AAE",
"6. c #982AAF",
"7. c #862FB3",
"8. c #8B2EB3",
"9. c #9C27B3",
"0. c #932BB1",
"q. c #9A29B1",
"w. c #8331B3",
"e. c #8A30B4",
/* pixels */
"Y Y Y I A g O                                                                                             O k S I Y Y Y ",
"Y Y Y D A h O   ; '                     < p                     ; u @                   , r .             O k A I Y Y Y ",
"Y Y Y I A h O   : ]     . ; .           3 a     X ;             ; a #   @ :             < u .   . :       O j A P Y Y Y ",
"Y Y Y I G j O           ; { # X .               < ' @ X @               5 | X X .               > |   X X O n I I Y Y Y ",
"Y Y Y T H j O           . =   r 9               . %   u y               . =   e w               . =   u p + v Y Y Y Y Y ",
"Y Y Y T H j O                 ; =                     : :                     ; ;                     > > + C Y Y Y Y Y ",
"Y Y Y T H j O   @ 8 8 @   . 4 #         = 8 8 $   . 4 @         @ 8 7 %     7 =         % 8 8 @     8 @   + x Y Y I I I ",
"Y Y Y T G j O   < $.$.>   @  .<         4 $.$.8   =  .:         : $.$.3     ..4         3 =.$.:     $.,   o x Y I S S S ",
"Y Y Y I H j + i i # # .     @ .       r r # @ .     @         i ' @ @ .     #         e y # @       %     + A Y Z A S S ",
"Y Y Y I G j O 2 ,       = w @         > >       ; e .         < <       < y .         : ,       ; r       + x Y U A S S ",
"c c z B S h O           = e @                   ; w .                   < u                     ; r       + A Y U A S S ",
"z z z B S g O                       & & @ @ & @ % @ @ # @ @ & & & @ & @ @ @ # # % @                       o x Y I S A S ",
"z z x A S g O                       2.9.w.#.q.;.%.$.$.$.$.$.q.q.8.>.5.;.$.$.$.$.$. .                      + v Y U A S A ",
"P Z Z H H j O   = r                 2.8.w.7.;.w.,.$.$.%.$.$.q.e.;.7.;.7.,.$.$.$.$. .    ; 0 .             O n R I I I I ",
"Y Y Y R L M +   ; i     . < .       3.w.;.8.$.;.7.>.$.$.$.%.8.;.;.8.#.w.7.;.$.$.$. .    : r .   X 1       + b H U Y Y Y ",
"Y Y Y E L M +           ; ] % @ X   O.w.7.$.$.#.;.8.>.%.$.$.>.8.8.$.$.#.;.5.-.$.$...            > }   # % o b H I Y Y Y ",
"Y Y Y R R n +           . #   r 0   1.;.#.$.$.w.8.-.5.-.$.$.0.,.#.$.$.e.7.<.5.,.$. .              @   u u + n R I I U I ",
"Y Y Y Y Y x O                 $ %   +.7.w.$.0.;.;.8.-.$.>.0.-.8.w.#.e.;.;.5.-.$.-.3.                  ; ; O m E I S S S ",
"Y Y Y Y Y l O   X < < .   . : @     ..;.w.;.0.w.w.8.$.>.;.8.$.7.8.,.e.w.w.8.#.>.;.3.    . < < .     < .   O m E Y S S S ",
"Y Y Y Y Y x O   , $.$.>   @ | 1     @.$.;.0.$.w.8.$.$.0.8.$.$.$.-.0.<.e.w.$.$.8.8...    3 $.$.:   . $.<   + B E T S S S ",
") ) _ ^ Y x + [ ]                   ..$.$.&.9.;.$.<.5.>.$.$.$.$.$.#.0.;.$.$.0.;.$. .  r i                 + B E E E E E ",
") _ _ W Y x O : ;       ; u @       ..$.$.$.,.$.%.<.0.>.$.$.$.$.$.=.-.=.$.$.q.,.$. .  = ;       ; '       - m E E E E E ",
") ) _ ^ Y x O           ; a @       ..$.$.$.$.$.$.#.0.>.$.%.$.$.$.=.$.=.$.$.q.;.$. .            ; [       O v E E E E E ",
"~ ^ ^ U Z g O                       O.#.&.%.%.%.$.<.0.>.$.$.#.#.#.$.=.=.$.$.0.;.$...                      O n H T T I T ",
"Y Y Y Z A f o                       1.5.w.#.5.;.$.$.&.%.$.$.0.5.8.$.8.>.$.$.&.$.$. .                      O k S S S S S ",
"Y Y Y Z x d o   ; i                 2.w.;.8.-.w.w.$.$.%.$.%.q.w.,.8.;.8.;.$.$.=.$...    : r X             O h S S S S S ",
"Y Y Y D Z k O   = r     @ 4 .       o.w.;.7.$.,.w.;.$.$.$.$.7.;.;.7.$.;.w.w.%.$.$. .    ; 0 .   % 6       + N Q H S S S ",
"Y Y Y E E m O           : ..%       ..8.8.$.$.$.;.0.%.$.$.$.$.0.0.$.$.$.;.q.%.$.$. .            < $.      + H _ ! S S S ",
"Y Y Y E E x o             @ . r 0   2.,.#.$.$.w.8.>.0.>.$.$.5.-.$.$.$.8.7.#.0.;.$. .              @   a a - J _ ( S S S ",
"Y Y Y Y E C O                 , ;   X.w.,.#.7.w.;.7.,.#.<.8.,.7.w.#.7.w.w.7.,.#.-.o.                  < < - J _ ! S S S ",
"D S S I Y x o   @ 5 4 @   . 3 %     ..;.7.,.7.7.;.7.#.-.;.8.$.;.w.;.7.;.;.8.$.>.7.o.    # 4 6 @     4 @   o b K R Y Y Y ",
"S S A I Y x O X 3  ...:   . ] <     ..$.-.0.#.7.7.%.#.8.8.$.$.#.>.0.>.8.w.$.#.7.7...  . 6  . .:      .:   O b H I Y Y Y ",
"S S S I Y x + [ '                   @.$.$.#.9.;.$.<.5.-.$.$.$.$.$.#.0.,.$.$.6.;.$. .  r i                 O j H T Y Y Y ",
"K H H I I h o 3 3       % q @       ..$.$.$.;.#.$.<.0.-.$.$.$.$.$.$.,.>.$.$.6.,.$. .  , <       = e       O l U T R T I ",
"L L L H S h O           = r @       ..$.$.$.$.$.$.<.0.-.$.$.$.$.%.$.$.$.$.$.6.,.$. .            ; i       + v Y U H H H ",
"L Q K H S g O                       O.#.#.$.>.#.$.#.0.-.$.$.>.#.%.$.#.%.$.$.0.,.$. .                      + A Y R H H H ",
"/ / ( T I b O                       1.0.e.#.0.,.%.$.&.$.$.$.5.5.8.#.5.-.$.$.#.$.$. .                      o x Y I D D D ",
"_ _ _ ^ E m O   : [                 4.7.;.8.-.w.w.$.$.%.$.$.9.;.;.8.-.7.;.$.$.$.$...    > i .             + x Y I A S S ",
"_ _ _ ^ E m O   ; '     X >         3.;.w.8.$.;.7.>.$.$.$.$.0.,.;.8.$.w.7.-.#.$.$. .    > u .   X ,       + v Y I A S S ",
"_ _ _ ~ E m O           : ..=       ..8.e.$.$.$.;.0.$.$.$.$.$.0.5.$.$.$.;.9.$.$.$. .            < $.      + x Y I S S S ",
"S S D I E m O                 ` e   4.;.$.$.$.7.8.<.0.-.$.$.q.-.$.%.$.8.w.$.q.;.$. .                  ] [ + x Y U H H H ",
"S S A T E m O                 ; =   +.7.;.&.5.w.;.8.;.#.-.e.;.e.w.#.8.;.w.8.;.&.,.o.                  ; ; + x Y U K H H ",
"S S A Y E m #   . : > X     ; .     ..w.e.-.0.;.;.8.$.<.;.0.$.w.8.;.8.;.w.0.%.#.;.3.    X : : .     : .   + v Y U H H H ",
"A S A Z Z g O # 1 |  .:   @ ] <     ..$.;.8.<.7.8.$.#.8.8.$.$.$.>.8.>.7.w.$.%.8.7. .  X 4 | | ;   . | ;   O n R D B B B ",
"S S S B c s O r i = =       % .     ..$.$.>.6.;.#.#.0.-.&.$.$.$.$.>.0.,.%.$.0.;.#...  q y = * .     = .   + j H A c z c ",
"S S S v z d o > :       = y X       ..$.$.$.;.<.$.&.6.<.$.$.$.=.%.%.-.$.$.$.0.,.$. .  ; ;       ; p       + j H A z z z ",
"S S S V m d O           = 0 @       @.$.%.$.$.$.$.<.q.<.$.$.$.=.$.$.$.$.$.$.5.-.$. .            $ r       + h S A v c B ",
"S S S V A h o                       ..$.$.$.$.$.$.<.0.-.$.$.$.$.$.$.$.$.$.$.q.;.$. .                      O f v B A A A ",
"S S P G V h O                       @ # @ @ # @ @ @ & @ # # @ @ # # # # # # & @ # @                       O f B A A A A ",
"S S S S S h O   = t                     > e                     * w @                   ; e .             O d B B S A A ",
"E Y Y I D j O   ; r     @ 3 .           > e     # 3 .           = w @   = 4             ; e .   # 4       O k S V z c x ",
"Y Y Y I H j O           ; { * . .               1 ] . X @               7 ..X @ .               >  .  . X O h S B z c c ",
"Y Y Y T H j O                 a e                     ] '                     u y                     ] [ O b A B c c c ",
"Y Y Y W ! C O                 < >                     4 2                     , ,                     1 3 + h A A V B B ",
"Y Y I ^ _ F +   . 1 1 X     < @         @ 1 1 %   . < .         . 3 3 @     < #         @ 1 3 X     1 X   + h S S A A S ",
"Y Y Y ) _ F + @ 3 |  .:   @ ] <       @ 8 |  .3   % ] ;       @ 3 } | ,     { 1       @ 4 | } ;      .;   O h S A S S S ",
"Y Y Y R R n O i u @ @       @         r r @ @ .     @         u i @ @     . @ .       w y @ @       %     O k S S H H H ",
"Y Y Y Z z s O ; $       ; p @         % %       , u X         ; ;       3 [ .         # =       : ]       + b A H Q L Q ",
"Y Y Y B z s o           ; u #                   , y .                   3 ' .                   ; '       O b A G L L K ",
"Y Y Y Z z s o                                                                                             O h S H L L L "
};
