/* XPM */
static char *f7f8f3b8b7ba4e69b4b5aca453931eb7SuFHfZNe5qUsLbfK[] = {
/* columns rows colors chars-per-pixel */
"416 32 17 1 ",
"  c None",
". c #2E2B27",
"X c gray18",
"o c #611B1B",
"O c #423D38",
"+ c #4D4840",
"@ c #D95763",
"# c #CDC668",
"$ c #C69591",
"% c #CD9B97",
"& c #CE9E9A",
"* c #C5A49B",
"= c #C7A59A",
"- c #D3A099",
"; c #CFACA0",
": c #ECD99C",
"> c #E8E18C",
/* pixels */
"                                                                                                                                                                                ...    ...                                                                                                                                                                                                                                      ",
"                                                                                                                                                                               .=&=.  .;%;.                                                                                                                                                                                                                                     ",
"                                                                                                                                                                               .$.-.  .%.;.          .                                                                                                                                                                                                                          ",
"                                                                                                                                                                               ..X.X..X.X..         .X.                                                                                                                                                                                                                         ",
"                                                                                                                                                ...    ...                     .XXXXXXXXXX.         .X.         ...    ...                                                                                                                                                                                                      ",
"                                                                                                                                               .=&=.  .;%;.              .    .XXXXXXXXXXX.         .X.        .=&=.  .;%;.         .                                                                                                                                                                                           ",
"                                                                                                                                               .$.-.  .%.;.             .X.   .XXXXX>XXXX>X.       .XX.        .$.-.  .%.;.        .X.                                                                                                                                                                                          ",
"                                                                                                                ...    ...                     ..X.X..X.X..             .X.   .XXXXX#XXXX#X.       .XX.        ..X.X..X.X..        .X.                              .                                                                                                                                                           ",
"                                                                                                               .=&=.  .;%;.                    .XXXXXXXXXX.             .X.   ....XXXXX@XXX.       .X.         .XXXXXXXXXX.        .X.                             .X.                                                                                                                                                          ",
"                                                                                                               .$.-.  .%.;.               .   .XXXXXXXXXXX.            .XX.   ..XXXXXXXXXXX.       .X.   .... .XXXXXXXXXXX.        .X.          ...    ...         .X.                                                                                                                                                          ",
"                ...    ...                                                                                     ..X.X..X.X..              .X.  .XXXXX>XXXX>X.           .XX.   .o...XXXXXXX.        .XX. .XXXX..XXXXX>XXXX>X.       .X.         .=&=.  .;%;.        .X.                                                                                                                                                          ",
"       .       .=&=.  .;%;.                                                                                    .XXXXXXXXXX.              .X.  .XXXXX#XXXX#X.           .X.    .oo.XXXXXXX.         .XX..XXXXXX.XXXXX#XXXX#X.       .X.         .$.-.  .%.;.        .X.                                                                                                                                                          ",
"      .X.      .$.-.  .%.;.                                                                               .   .XXXXXXXXXXX.              .X.  ....XXXXX@XXX.           .X.    .Xoo.......          .XXXXXXXXXX....XXXXX@XXX.       .X.   ..    ..X.X..X.X..        .X.          ...    ...                                                                                                                                      ",
"      .X.      ..X.X..X.X..                                                                              .X.  .XXXXX>XXXX>X.            .XX.  ..XXXXXXXXXXX.           .XX.  .XXXooooooo.           .XXXXXXXXX..XXXXXXXXXXX.       .XX. .XX.   .XXXXXXXXXX.        .X.         .=&=.  .;%;.         .                                                                                                           ...    ...      ",
"      .X.      .XXXXXXXXXX.                                                                              .X.  .XXXXX#XXXX#X.           .XX.   .o...XXXXXXX.            .XXX..XXXXXXX:XXXX..         .XXXXXXXXXXo...XXXXXXX.        .XX..XXXX. .XXXXXXXXXXX.        .X.         .$.-.  .%.;.        .X.          ...    ...                                                                             .       .=&=.  .;%;.     ",
"     .XX.     .XXXXXXXXXXX.            .         ...    ...                                              .X.  ....XXXXX@XXX.           .X.    .oo.XXXXXXX.             .XXXXXXXXXXXXXXXXXXX.         ..XXXXXXXXoo.XXXXXXX.         .XXXXXXXXX..XXXXX>XXXX>X.       .X.   ..    ..X.X..X.X..        .X.         .=&=.  .;%;.           .         ...    ...                                            .X.      .$.-.  .%.;.     ",
"    .XX.      .XXXXX>XXXX>X.          .X.       .=&=.  .;%;.                                            .XX.  ..XXXXXXXXXXX.           .X.    .Xoo.......               .XXXXXXXXXXXXXXXXXX.          .XXX+XXXXXoo.......           .XXXXXXXXX.XXXXX#XXXX#X.       .XX. .XX.   .XXXXXXXXXX.        .X.         .$.-.  .%.;.          .X.       .=&=.  .;%;.           .         ...    ...            .X.      ..X.X..X.X..     ",
"    .X.       .XXXXX#XXXX#X.          .X.       .$.-.  .%.;.           .         ...    ...            .XX.   .o...XXXXXXX.            .XX.  .XXXooooooo.               .XXXXXXXXXXXXX.....           .XXXOXXXXXXooooooo            .XXXXXXXXX....XXXXX@XXX.       .XX..XXXX. .XXXXXXXXXXX.        .X.         ..X......X..          .X.       .$.-.  .%.;.          .X.       .=&=.  .;%;.           .X.      .XXXXXXXXXX.     ",
"    .X.       ....XXXXX@XXX.          .X.       ..X.X..X.X..          .X.       .=&=.  .;%;.           .X.    .oo.XXXXXXX.             .XXX..XXXXXXX:XXXX..              ..XXXXXXXXX..                 ... ...OXXXXX:XX.             ..XXXXXXX..XXXXXXXXXXX.       .XXXXXXXXX..XXXXX>XXXX>X.       .X.         .XXXXXXXXXX.          .X.       ..X.X..X.X..          .X.       .$.-.  .%.;.          .XX.     .XXXXXXXXXXX.     ",
"    .XX.       .XXXXXXXXXXX.         .XX.       .XXXXXXXXXX.          .X.       .$.-.  .%.;.           .X.    .Xoo.......              .XXXXXXXXXXXXXXXXXXX.             ..XXXXXXXX.                          .XXO.XX..               .XXX+XXXXo...XXXXXXX.         .XXXXXXXXX.XXXXX#XXXX#X.       .X.   XXXX ..XXXXXXXXXX.         .XX.       .XXXXXXXXXX.          .X.       ..X.X..X.X..         .XX.      .XXXXX>XXXX>X.    ",
"    .XXX.......o...XXXXXXX.         .XX.       .XXXXXXXXXXX.          .X.       ..X.X..X.X..           .XX.  .XXXooooooo.               .XXXXXXXXXXXXXXXXXX.             .XXXXXXX..                            ... ..                 .XXXOXXXXoo.XXXXXXX.          .XXXXXXXXX....XXXXX@XXX.       .X.. XXXXXX..XXXX>XXXX>X.       .XX.       .XXXXXXXXXXX.         .XX.       .XXXXXXXXXX.         .X.       .XXXXX#XXXX#X.    ",
"    .XXXXXXXXXXoo.XXXXXXX.          .X.        .XXXXX>XXXX>X.        .XX.       .XXXXXXXXXX.           .XXX..XXXXXXX:XXXX..             .XXXXXXXXXXXXX.....              .XX+XXX.                                                      ... .XXXXoo.......            ..XXXXXXX..XXXXXXXXXXX.       .XXXXXXXXXX..XXXX#XXXX#X.       .X.        .XXXXX>XXXX>X.       .XX.       .XXXXXXXXXXX.         .X.       ....XXXXX@XXX.    ",
"     .XXXXXXXXXXoo.......           .X.        .XXXXX#XXXX#X.       .XX.       .XXXXXXXXXXX.           .XXXXXXXXXXXXXXXXXXX.             ..XXXXXXXXX..                  .XXXOXX.                                                           .XXXXXooooooo              .XXX+XXXXo...XXXXXXX.        .XXXXXXXXXX.....XXXX@XXX.       .X.   .... .XXXXX#XXXX#X.       .X.        .XXXXX>XXXX>X.        .XX.       .XXXXXXXXXXX.    ",
"     .XXXXXXXXXXXooooooo            .XX. ....  ....XXXXX@XXX.       .X.        .XXXXX>XXXX>X.           .XXXXXXXXXXXXXXXXXX.             ..XXXXXXXX.                    .XX.XX.                                                             ..OXXXXX:XX.              .XXXOXXXXoo.XXXXXXX.          .XXXXXXXXX..XXXXXXXXXXX.       .XX. .XXXX.....XXXXX@XXX.       .X.   .... .XXXXX#XXXX#X.        .XXX.......o...XXXXXXX.     ",
"      ..XXXXXXXXXXXX:XX.            .XXX.XXXX.  .XXXXXXXXXXX.       .X.        .XXXXX#XXXX#X.           .XXXXXXXXXXXXX.....              .XXXXXXX..                      .....                                                                .XXO.XX..                ... .XXXXoo.......           .XXXXXXXXXXo....XXXXXX.        .XX..XXXXXX..XXXXXXXXXXX.       .XX. .XXXX.....XXXXX@XXX.        .XXXXXXXXXXoo.XXXXXXX.      ",
"       .XXXXXXXXXXXXXXX.            .XXXXXXXXX..o...XXXXXXX.        .XX.       ....XXXXX@XXX.            ..XXXXXXXXX..                   .XX+XXX.                                                                                              ... ..                      .XXXXXooooooo             .XXXXXXXXXoo.XXXXXXX.         .XXXXXXXXXXXo...XXXXXXX.        .XX..XXXXXX..XXXXXXXXXXX.         .XXXXXXXXXXoo.......       ",
"       .XXXXXXXXXXXXXXX.             .XXXXXXXXXXoo.XXXXXXX.         .XXX.....   .XXXXXXXXXXX.            ..XXXXXXXX.                    .XXXOXX.                                                                                                                            ..OXXXXX:XX.              XXX.+XXXXXoo.......           .XXXXXXXXXXoo.XXXXXXX.         .XXXXXXXXXXXo...XXXXXXX.          .XXXXXXXXXXXooooooo        ",
"       .XXXXXXXXXXXXXX.              .XXXXXXXXXXXoo.......          .XXXXXXXX...o...XXXXXXX.             .XXXXXXX..                     .XX.XX.                                                                                                                               .XXO.XX..               .XX.OXXXXXXooooooo            .XXXXXXXXXXXoo.......           .XXXXXXXXXXoo.XXXXXXX.            ..XXXXXXXXXXXX:XX.        ",
"       .XXX+XXX+XX+XXX.               ..XXXXXXXXXXooooooo            .XXXXXXXXXXoo.XXXXXXX.              .XX+XXX.                        .....                                                                                                                                 ... ..                  ... ...OXXXXX:XX.             ..XXXXXXXXXXooooooo            .XXXXXXXXXXXoo.......              .XXXXXXXXXXXXXXX.        ",
"       .XXXOXXXOXXOXXX.                .XXX+XXXXXXXXX:XX.            .XXXXXXXXXXXoo.......              .XXXOXX.                                                                                                                                                                                              .XXOXXX..               .XXX+XXXOXXXXX:XX.             ..XXXXXXXXXXooooooo               .XXX+XXX+XX+XXX.         ",
"       .XX..XX..XX..XX.                .XXXOXXXOXXOXXX..               .XXXXXXXXXXooooooo               .XX.XX.                                                                                                                                                                                                ... ..                 .XXXOXXX XXOXXX..               .XXX+XXXOXXXXX:XX.               .XX..XX..XX..XX.         ",
"        ... ... ... ..                  ... ... ... ..                 .XXX+XXXXXXXXX:XX.                .....                                                                                                                                                                                                                         ... ... ... ..                  ... ... ... ....                 ... ... ... ..          "
};
