/* XPM */
static char *_11c5ee4429c4ccfe43d7721fbca39d9sHbU2gxzJ02AYFIk[] = {
/* columns rows colors chars-per-pixel */
"32 32 197 2 ",
"   c #C08863",
".  c #CC9B71",
"X  c #D4AA7C",
"o  c #D7B282",
"O  c #D9B585",
"+  c #DAB686",
"@  c #DEBC8C",
"#  c #E3C394",
"$  c #E8CC9E",
"%  c #BC7B5B",
"&  c #C68F67",
"*  c #CF9E71",
"=  c #D3A677",
"-  c #D5A978",
";  c #D5AB7A",
":  c #D9B181",
">  c #DEBC8B",
",  c #E3C797",
"<  c #B77256",
"1  c #C28661",
"2  c #CB966A",
"3  c #CF9E6F",
"4  c #D1A171",
"5  c #D1A373",
"6  c #D5AA7A",
"7  c #D9B685",
"8  c #DFC292",
"9  c #B56F54",
"0  c #C1835F",
"q  c #CA9268",
"w  c #CD9B6C",
"e  c #CF9E6E",
"r  c #D0A070",
"t  c #D3A878",
"y  c #D9B483",
"u  c #DDC292",
"i  c #C99267",
"p  c #C1825E",
"a  c #C99166",
"s  c #CD9A6B",
"d  c #CF9D6E",
"f  c #CF9D6D",
"g  c #CE9C6D",
"h  c #CE9D6D",
"j  c #B56E54",
"k  c #BF7E5C",
"l  c #C68C63",
"z  c #CB9568",
"x  c #CD9A6C",
"c  c #CC966A",
"v  c #BC7759",
"b  c #C1805E",
"n  c #C68A63",
"m  c #CB9569",
"M  c #CA9469",
"N  c #C58A63",
"B  c #C68B64",
"V  c #CA9368",
"C  c #B16751",
"Z  c #B76E54",
"A  c #BC7658",
"S  c #C78C64",
"D  c #CD996B",
"F  c #C68A64",
"G  c #C07F5D",
"H  c #C17F5D",
"J  c #C68963",
"K  c #AB5C4D",
"L  c #B26550",
"P  c #B86E54",
"I  c #BD7759",
"U  c #C1815F",
"Y  c #CD996C",
"T  c #C17F5E",
"R  c #BD7659",
"E  c #CE9B6D",
"W  c #A45148",
"Q  c #AD5E4D",
"!  c #B56852",
"~  c #BA7056",
"^  c #C17E5D",
"/  c #BC7558",
"(  c #BB7156",
")  c #BD7658",
"_  c #C07E5C",
"`  c #C58962",
"'  c #CE9B6C",
"]  c #D09E6F",
"[  c #D3A777",
"{  c #9F4944",
"}  c #AB594C",
"|  c #B46551",
" . c #B86C53",
".. c #BA6F55",
"X. c #BC7458",
"o. c #C68C65",
"O. c #CA9569",
"+. c #C68C64",
"@. c #B96F54",
"#. c #B96E54",
"$. c #BA7055",
"%. c #C07E5D",
"&. c #CA9468",
"*. c #CE9C6E",
"=. c #9E4844",
"-. c #AB584B",
";. c #B46550",
":. c #B76C53",
">. c #BC7659",
",. c #C48862",
"<. c #BF7B5B",
"1. c #C48761",
"2. c #D2A575",
"3. c #D8B483",
"4. c #BA7155",
"5. c #C2805E",
"6. c #BD7558",
"7. c #BB7357",
"8. c #C07D5C",
"9. c #C78C65",
"0. c #CF9D72",
"q. c #D6AF81",
"w. c #DDC091",
"e. c #BA7256",
"r. c #BD7859",
"t. c #C1815E",
"y. c #CB956A",
"u. c #C2825F",
"i. c #CA926C",
"p. c #D3A77C",
"a. c #DCBF90",
"s. c #B96F55",
"d. c #BB7257",
"f. c #C78D65",
"g. c #C68863",
"h. c #BA7156",
"j. c #BE785A",
"k. c #C58866",
"l. c #CF9F77",
"z. c #D9B98A",
"x. c #C2815E",
"c. c #C38460",
"v. c #C18060",
"b. c #CA9570",
"n. c #D4B182",
"m. c #C07C5C",
"M. c #C68D67",
"N. c #CDA175",
"B. c #BB7056",
"V. c #BE7A5A",
"C. c #C48863",
"Z. c #C9996C",
"A. c #BE795A",
"S. c #C9976B",
"D. c #9D4744",
"F. c #A9574B",
"G. c #B26350",
"H. c #B76A52",
"J. c #B86D53",
"K. c #BE775A",
"L. c #C28561",
"P. c #C89469",
"I. c #984344",
"U. c #A5514A",
"Y. c #AE5D4E",
"T. c #B46650",
"R. c #B56851",
"E. c #B97056",
"W. c #BE7D5D",
"Q. c #C48D65",
"!. c #8F3D45",
"~. c #9B4948",
"^. c #A5534A",
"/. c #AA584B",
"(. c #AB5A4B",
"). c #AD5C4C",
"_. c #B16450",
"`. c #B77056",
"'. c #BC7F5D",
"]. c #823545",
"[. c #8F3E45",
"{. c #994545",
"}. c #9E4945",
"|. c #A04A45",
" X c #A14C45",
".X c #A55349",
"XX c #AB5E4D",
"oX c #B26B54",
"OX c #622C3E",
"+X c None",
"@X c #70363D",
"#X c #74393D",
"$X c #75393D",
"%X c #763A3E",
"&X c #783F40",
"*X c #7C4743",
"=X c #815046",
/* pixels */
"  . X o O O O O O O O O O O O O O O O O O O O O O O O O + @ # $ ",
"% & * = - - - - - - - - - - - - - - - - - - - - - - - - ; : > , ",
"< 1 2 3 4 4 4 4 4 4 4 4 4 4 4 4 4 4 4 4 4 4 4 4 4 4 4 4 5 6 7 8 ",
"9 0 q w e e e e e e e e e e e e e e e e e e e e e e e e r t y u ",
"9 0 q w e e e e e e e e e e e e e e e e e e e e e e e e r t y u ",
"9 0 q w e e e e e e e e e e e e e e e e e e e e e e e e r t y u ",
"9 0 q w e e e e e e e e e e e e e e e e e e e e e e e e r t y u ",
"9 0 i w e e e e e e e e e e e e e e e e e e e e e e e e r t y u ",
"9 p a s d e e e e e e e e e e e e e e e f g g h e e e e r t y u ",
"j k l z x e e e e e e e e e e e e e e g x 2 c x g e e e r t y u ",
"j v b n m d e e e e e e e e e e e e d x M N B V x e e e r t y u ",
"C Z A b S 2 x h e e e e e e e e e g D V F G H J V x d e r t y u ",
"K L P I U B M x d e e e e e e e e Y q J T R I H J q E d r t y u ",
"W Q ! ~ I ^ B m x d e e e e e h w M J ^ / ( ( ) _ ` m ' ] [ y u ",
"{ } |  ...X.b o.O.w d e e e h x O.+.H / @.#.#.$.X.%.B &.*.= y u ",
"=.-.;.:.#.$.>.T n 2 h e e e w O.,._ ) ( #.#.#.#.( / <.1.m 2.3.u ",
"=.-.;.:.#.@.4.) 5.S m x ' Y M +._ 6.( ..#.#.#.#...~ 7.8.9.0.q.w.",
"=.-.;.:.#.#.#.e.r.t.N &.y.q J H ) ( @.#.#.#.#.#.#.#...) u.i.p.a.",
"=.-.;.:.#.#.#.s.d.I H B f.g.^ / ( ..#.#.#.#.#.#.#.#.#.h.j.k.l.z.",
"=.-.;.:.#.#.#.#.#.$.) x.c.H / #.#.#.#.#.#.#.#.#.#.#.#.#.d.v.b.n.",
"=.-.;.:.#.#.#.#.#.#.( R I / ( #.#.#.#.#.#.#.#.#.#.#.#.#.( m.M.N.",
"=.-.;.:.#.#.#.#.#.#.#.$.$...@.#.#.#.#.#.#.#.#.#.#.#.#.#.B.V.C.Z.",
"=.-.;.:.#.#.#.#.#.#.#.#.@.#.#.#.#.#.#.#.#.#.#.#.#.#.#.#.B.A.1.S.",
"=.-.;.:.#.#.#.#.#.#.#.#.#.#.#.#.#.#.#.#.#.#.#.#.#.#.#.#.B.A.1.S.",
"=.-.;.:.#.#.#.#.#.#.#.#.#.#.#.#.#.#.#.#.#.#.#.#.#.#.#.#.B.A.1.S.",
"=.-.;.:.#.#.#.#.#.#.#.#.#.#.#.#.#.#.#.#.#.#.#.#.#.#.#.#.B.A.1.S.",
"=.-.;.:.#.#.#.#.#.#.#.#.#.#.#.#.#.#.#.#.#.#.#.#.#.#.#.#.B.A.1.S.",
"D.F.G.H.J.J.J.J.J.J.J.J.J.J.J.J.J.J.J.J.J.J.J.J.J.J.J.J.s.K.L.P.",
"I.U.Y.G.T.T.T.T.T.T.T.T.T.T.T.T.T.T.T.T.T.T.T.T.T.T.T.T.R.E.W.Q.",
"!.~.^./.(.(.(.(.(.(.(.(.(.(.(.(.(.(.(.(.(.(.(.(.(.(.(.(.)._.`.'.",
"].[.{.}.|.|.|.|.|.|.|.|.|.|.|.|.|.|.|.|.|.|.|.|.|.|.|.|. X.XXXoX",
"OX+X@X#X$X$X$X$X$X$X$X$X$X$X$X$X$X$X$X$X$X$X$X$X$X$X$X$X%X&X*X=X"
};